<mxfile host="app.diagrams.net" modified="2023-12-28T08:39:03.059Z" agent="Mozilla/5.0 (Windows NT 10.0; Win64; x64) AppleWebKit/537.36 (KHTML, like Gecko) Chrome/120.0.0.0 Safari/537.36" etag="drEJjJbW5zScHGzk_zZV" version="22.1.15" type="device">
  <diagram name="페이지-1" id="6nSoXCkCoaHmQdNdzpjL">
    <mxGraphModel dx="1816" dy="514" grid="1" gridSize="10" guides="1" tooltips="1" connect="1" arrows="1" fold="1" page="1" pageScale="1" pageWidth="827" pageHeight="1169" math="0" shadow="0">
      <root>
        <mxCell id="0" />
        <mxCell id="1" parent="0" />
        <mxCell id="hrEQfBOvGpcp4atjUUnU-1" value="Actor" style="shape=umlActor;verticalLabelPosition=bottom;verticalAlign=top;html=1;" vertex="1" parent="1">
          <mxGeometry x="50" y="50" width="30" height="60" as="geometry" />
        </mxCell>
        <mxCell id="hrEQfBOvGpcp4atjUUnU-2" value="Use Case" style="ellipse;whiteSpace=wrap;html=1;" vertex="1" parent="1">
          <mxGeometry x="110" y="50" width="140" height="70" as="geometry" />
        </mxCell>
        <mxCell id="hrEQfBOvGpcp4atjUUnU-3" value="" style="endArrow=open;endFill=1;endSize=12;html=1;rounded=0;" edge="1" parent="1">
          <mxGeometry width="160" relative="1" as="geometry">
            <mxPoint x="50" y="170" as="sourcePoint" />
            <mxPoint x="210" y="170" as="targetPoint" />
          </mxGeometry>
        </mxCell>
        <mxCell id="hrEQfBOvGpcp4atjUUnU-4" value="&amp;lt;&amp;lt;include&amp;gt;&amp;gt;" style="endArrow=open;endSize=12;dashed=1;html=1;rounded=0;" edge="1" parent="1">
          <mxGeometry y="20" width="160" relative="1" as="geometry">
            <mxPoint x="50" y="250" as="sourcePoint" />
            <mxPoint x="210" y="250" as="targetPoint" />
            <Array as="points" />
            <mxPoint as="offset" />
          </mxGeometry>
        </mxCell>
        <mxCell id="hrEQfBOvGpcp4atjUUnU-5" value="&amp;lt;&amp;lt;extend&amp;gt;&amp;gt;" style="endArrow=open;endSize=12;dashed=1;html=1;rounded=0;" edge="1" parent="1">
          <mxGeometry y="20" width="160" relative="1" as="geometry">
            <mxPoint x="50" y="290" as="sourcePoint" />
            <mxPoint x="210" y="290" as="targetPoint" />
            <Array as="points" />
            <mxPoint as="offset" />
          </mxGeometry>
        </mxCell>
        <mxCell id="hrEQfBOvGpcp4atjUUnU-6" value="" style="endArrow=block;endSize=16;endFill=0;html=1;rounded=0;" edge="1" parent="1">
          <mxGeometry y="20" width="160" relative="1" as="geometry">
            <mxPoint x="50" y="330" as="sourcePoint" />
            <mxPoint x="210" y="330" as="targetPoint" />
            <mxPoint as="offset" />
          </mxGeometry>
        </mxCell>
        <mxCell id="hrEQfBOvGpcp4atjUUnU-7" value="규칙 1. 연관 관계(실선 화살표)는&lt;br&gt;액터 -&amp;gt; 유스케이스&lt;br&gt;유스케이스 -&amp;gt; 액터&lt;br&gt;위 형식만 가능하다.&lt;br&gt;" style="text;html=1;align=center;verticalAlign=middle;resizable=0;points=[];autosize=1;strokeColor=none;fillColor=none;" vertex="1" parent="1">
          <mxGeometry x="-10" y="370" width="200" height="70" as="geometry" />
        </mxCell>
        <mxCell id="hrEQfBOvGpcp4atjUUnU-9" value="Actor" style="shape=umlActor;verticalLabelPosition=bottom;verticalAlign=top;html=1;" vertex="1" parent="1">
          <mxGeometry x="10" y="455" width="30" height="60" as="geometry" />
        </mxCell>
        <mxCell id="hrEQfBOvGpcp4atjUUnU-10" value="Use Case" style="ellipse;whiteSpace=wrap;html=1;" vertex="1" parent="1">
          <mxGeometry x="170" y="450" width="120" height="70" as="geometry" />
        </mxCell>
        <mxCell id="hrEQfBOvGpcp4atjUUnU-11" value="" style="endArrow=open;endFill=1;endSize=12;html=1;rounded=0;exitX=0.5;exitY=0.5;exitDx=0;exitDy=0;exitPerimeter=0;entryX=0;entryY=0.5;entryDx=0;entryDy=0;" edge="1" parent="1" source="hrEQfBOvGpcp4atjUUnU-9" target="hrEQfBOvGpcp4atjUUnU-10">
          <mxGeometry width="160" relative="1" as="geometry">
            <mxPoint x="40" y="484.71" as="sourcePoint" />
            <mxPoint x="200" y="484.71" as="targetPoint" />
          </mxGeometry>
        </mxCell>
        <mxCell id="hrEQfBOvGpcp4atjUUnU-12" value="Use Case" style="ellipse;whiteSpace=wrap;html=1;" vertex="1" parent="1">
          <mxGeometry y="570" width="110" height="70" as="geometry" />
        </mxCell>
        <mxCell id="hrEQfBOvGpcp4atjUUnU-13" value="" style="endArrow=open;endFill=1;endSize=12;html=1;rounded=0;exitX=1;exitY=0.424;exitDx=0;exitDy=0;entryX=0.5;entryY=0.5;entryDx=0;entryDy=0;exitPerimeter=0;entryPerimeter=0;" edge="1" parent="1" source="hrEQfBOvGpcp4atjUUnU-12" target="hrEQfBOvGpcp4atjUUnU-14">
          <mxGeometry width="160" relative="1" as="geometry">
            <mxPoint x="120" y="600" as="sourcePoint" />
            <mxPoint x="265" y="600" as="targetPoint" />
          </mxGeometry>
        </mxCell>
        <mxCell id="hrEQfBOvGpcp4atjUUnU-14" value="Actor" style="shape=umlActor;verticalLabelPosition=bottom;verticalAlign=top;html=1;" vertex="1" parent="1">
          <mxGeometry x="220" y="570" width="30" height="60" as="geometry" />
        </mxCell>
        <mxCell id="hrEQfBOvGpcp4atjUUnU-15" value="규칙 2. 포함, 확장 관계는&lt;br&gt;유스케이스 끼리만 가능하다!&lt;br&gt;" style="text;html=1;align=center;verticalAlign=middle;resizable=0;points=[];autosize=1;strokeColor=none;fillColor=none;" vertex="1" parent="1">
          <mxGeometry x="390" y="370" width="180" height="40" as="geometry" />
        </mxCell>
        <mxCell id="hrEQfBOvGpcp4atjUUnU-16" value="내 정보 조회" style="ellipse;whiteSpace=wrap;html=1;" vertex="1" parent="1">
          <mxGeometry x="400" y="440" width="100" height="60" as="geometry" />
        </mxCell>
        <mxCell id="hrEQfBOvGpcp4atjUUnU-17" value="로그인" style="ellipse;whiteSpace=wrap;html=1;" vertex="1" parent="1">
          <mxGeometry x="610" y="440" width="100" height="60" as="geometry" />
        </mxCell>
        <mxCell id="hrEQfBOvGpcp4atjUUnU-18" value="회원가입" style="ellipse;whiteSpace=wrap;html=1;" vertex="1" parent="1">
          <mxGeometry x="400" y="570" width="100" height="60" as="geometry" />
        </mxCell>
        <mxCell id="hrEQfBOvGpcp4atjUUnU-19" value="프로필 사진 등록" style="ellipse;whiteSpace=wrap;html=1;" vertex="1" parent="1">
          <mxGeometry x="610" y="570" width="100" height="60" as="geometry" />
        </mxCell>
        <mxCell id="hrEQfBOvGpcp4atjUUnU-20" value="&amp;lt;&amp;lt;include&amp;gt;&amp;gt;" style="endArrow=open;endSize=12;dashed=1;html=1;rounded=0;" edge="1" parent="1">
          <mxGeometry y="20" width="160" relative="1" as="geometry">
            <mxPoint x="500" y="469.71000000000004" as="sourcePoint" />
            <mxPoint x="610" y="470" as="targetPoint" />
            <Array as="points" />
            <mxPoint as="offset" />
          </mxGeometry>
        </mxCell>
        <mxCell id="hrEQfBOvGpcp4atjUUnU-21" value="&amp;lt;&amp;lt;extend&amp;gt;&amp;gt;" style="endArrow=open;endSize=12;dashed=1;html=1;rounded=0;exitX=0;exitY=0.5;exitDx=0;exitDy=0;" edge="1" parent="1" source="hrEQfBOvGpcp4atjUUnU-19" target="hrEQfBOvGpcp4atjUUnU-18">
          <mxGeometry y="20" width="160" relative="1" as="geometry">
            <mxPoint x="520" y="570" as="sourcePoint" />
            <mxPoint x="680" y="570" as="targetPoint" />
            <Array as="points" />
            <mxPoint as="offset" />
          </mxGeometry>
        </mxCell>
        <mxCell id="hrEQfBOvGpcp4atjUUnU-22" value="규칙 3. 일반화 관계는&lt;br&gt;액터끼리 또는 &lt;br&gt;유스케이스 끼리만 가능하다!" style="text;html=1;align=center;verticalAlign=middle;resizable=0;points=[];autosize=1;strokeColor=none;fillColor=none;" vertex="1" parent="1">
          <mxGeometry x="-10" y="680" width="180" height="60" as="geometry" />
        </mxCell>
        <mxCell id="hrEQfBOvGpcp4atjUUnU-23" value="제목 검색" style="ellipse;whiteSpace=wrap;html=1;" vertex="1" parent="1">
          <mxGeometry x="10" y="760" width="100" height="60" as="geometry" />
        </mxCell>
        <mxCell id="hrEQfBOvGpcp4atjUUnU-24" value="내용 검색" style="ellipse;whiteSpace=wrap;html=1;" vertex="1" parent="1">
          <mxGeometry x="10" y="860" width="100" height="60" as="geometry" />
        </mxCell>
        <mxCell id="hrEQfBOvGpcp4atjUUnU-25" value="게시글 검색" style="ellipse;whiteSpace=wrap;html=1;" vertex="1" parent="1">
          <mxGeometry x="240" y="800" width="100" height="60" as="geometry" />
        </mxCell>
        <mxCell id="hrEQfBOvGpcp4atjUUnU-26" value="" style="endArrow=block;endSize=16;endFill=0;html=1;rounded=0;entryX=0.009;entryY=0.348;entryDx=0;entryDy=0;exitX=1.023;exitY=0.652;exitDx=0;exitDy=0;exitPerimeter=0;entryPerimeter=0;" edge="1" parent="1" source="hrEQfBOvGpcp4atjUUnU-23" target="hrEQfBOvGpcp4atjUUnU-25">
          <mxGeometry y="20" width="160" relative="1" as="geometry">
            <mxPoint x="70" y="850" as="sourcePoint" />
            <mxPoint x="230" y="850" as="targetPoint" />
            <mxPoint as="offset" />
          </mxGeometry>
        </mxCell>
        <mxCell id="hrEQfBOvGpcp4atjUUnU-27" value="" style="endArrow=block;endSize=16;endFill=0;html=1;rounded=0;exitX=1;exitY=0.5;exitDx=0;exitDy=0;entryX=0.043;entryY=0.733;entryDx=0;entryDy=0;entryPerimeter=0;" edge="1" parent="1" source="hrEQfBOvGpcp4atjUUnU-24" target="hrEQfBOvGpcp4atjUUnU-25">
          <mxGeometry y="20" width="160" relative="1" as="geometry">
            <mxPoint x="90" y="900" as="sourcePoint" />
            <mxPoint x="240" y="850" as="targetPoint" />
            <mxPoint as="offset" />
          </mxGeometry>
        </mxCell>
        <mxCell id="hrEQfBOvGpcp4atjUUnU-28" value="비회원" style="shape=umlActor;verticalLabelPosition=bottom;verticalAlign=top;html=1;" vertex="1" parent="1">
          <mxGeometry x="30" y="1130" width="30" height="60" as="geometry" />
        </mxCell>
        <mxCell id="hrEQfBOvGpcp4atjUUnU-29" value="회원" style="shape=umlActor;verticalLabelPosition=bottom;verticalAlign=top;html=1;" vertex="1" parent="1">
          <mxGeometry x="30" y="970" width="30" height="60" as="geometry" />
        </mxCell>
        <mxCell id="hrEQfBOvGpcp4atjUUnU-30" value="사용자" style="shape=umlActor;verticalLabelPosition=bottom;verticalAlign=top;html=1;" vertex="1" parent="1">
          <mxGeometry x="290" y="1030" width="30" height="60" as="geometry" />
        </mxCell>
        <mxCell id="hrEQfBOvGpcp4atjUUnU-32" value="" style="endArrow=block;endSize=16;endFill=0;html=1;rounded=0;exitX=1;exitY=0.5;exitDx=0;exitDy=0;" edge="1" parent="1">
          <mxGeometry y="20" width="160" relative="1" as="geometry">
            <mxPoint x="60" y="1016" as="sourcePoint" />
            <mxPoint x="290" y="1060" as="targetPoint" />
            <mxPoint as="offset" />
          </mxGeometry>
        </mxCell>
        <mxCell id="hrEQfBOvGpcp4atjUUnU-33" value="" style="endArrow=block;endSize=16;endFill=0;html=1;rounded=0;exitX=1;exitY=0.5;exitDx=0;exitDy=0;" edge="1" parent="1" target="hrEQfBOvGpcp4atjUUnU-30">
          <mxGeometry y="20" width="160" relative="1" as="geometry">
            <mxPoint x="70" y="1169" as="sourcePoint" />
            <mxPoint x="204" y="1123" as="targetPoint" />
            <mxPoint as="offset" />
          </mxGeometry>
        </mxCell>
        <mxCell id="hrEQfBOvGpcp4atjUUnU-34" value="공지사항 조회" style="ellipse;whiteSpace=wrap;html=1;" vertex="1" parent="1">
          <mxGeometry x="480" y="1040" width="100" height="60" as="geometry" />
        </mxCell>
        <mxCell id="hrEQfBOvGpcp4atjUUnU-35" value="" style="endArrow=open;endFill=1;endSize=12;html=1;rounded=0;exitX=0.5;exitY=0.5;exitDx=0;exitDy=0;exitPerimeter=0;entryX=-0.037;entryY=0.49;entryDx=0;entryDy=0;entryPerimeter=0;" edge="1" parent="1" target="hrEQfBOvGpcp4atjUUnU-34">
          <mxGeometry width="160" relative="1" as="geometry">
            <mxPoint x="320" y="1069.71" as="sourcePoint" />
            <mxPoint x="465" y="1069.71" as="targetPoint" />
          </mxGeometry>
        </mxCell>
        <mxCell id="hrEQfBOvGpcp4atjUUnU-36" value="비회원" style="shape=umlActor;verticalLabelPosition=bottom;verticalAlign=top;html=1;" vertex="1" parent="1">
          <mxGeometry x="20" y="1390" width="30" height="60" as="geometry" />
        </mxCell>
        <mxCell id="hrEQfBOvGpcp4atjUUnU-38" value="회원가입" style="ellipse;whiteSpace=wrap;html=1;" vertex="1" parent="1">
          <mxGeometry x="170" y="1390" width="100" height="60" as="geometry" />
        </mxCell>
        <mxCell id="hrEQfBOvGpcp4atjUUnU-39" value="" style="endArrow=open;endFill=1;endSize=12;html=1;rounded=0;exitX=0.5;exitY=0.5;exitDx=0;exitDy=0;exitPerimeter=0;" edge="1" parent="1">
          <mxGeometry width="160" relative="1" as="geometry">
            <mxPoint x="60" y="1419.71" as="sourcePoint" />
            <mxPoint x="170" y="1420" as="targetPoint" />
          </mxGeometry>
        </mxCell>
        <mxCell id="hrEQfBOvGpcp4atjUUnU-40" value="이메일 인증" style="ellipse;whiteSpace=wrap;html=1;" vertex="1" parent="1">
          <mxGeometry x="380" y="1390" width="100" height="60" as="geometry" />
        </mxCell>
        <mxCell id="hrEQfBOvGpcp4atjUUnU-41" value="&amp;lt;&amp;lt;include&amp;gt;&amp;gt;" style="endArrow=open;endSize=12;dashed=1;html=1;rounded=0;" edge="1" parent="1">
          <mxGeometry y="20" width="160" relative="1" as="geometry">
            <mxPoint x="270" y="1419.71" as="sourcePoint" />
            <mxPoint x="380" y="1420" as="targetPoint" />
            <Array as="points" />
            <mxPoint as="offset" />
          </mxGeometry>
        </mxCell>
        <mxCell id="hrEQfBOvGpcp4atjUUnU-42" value="" style="endArrow=open;endFill=1;endSize=12;html=1;rounded=0;exitX=0.5;exitY=0.5;exitDx=0;exitDy=0;exitPerimeter=0;" edge="1" parent="1">
          <mxGeometry width="160" relative="1" as="geometry">
            <mxPoint x="480" y="1420.3500000000001" as="sourcePoint" />
            <mxPoint x="570" y="1420" as="targetPoint" />
          </mxGeometry>
        </mxCell>
        <mxCell id="hrEQfBOvGpcp4atjUUnU-43" value="Gmail 서버&lt;br&gt;" style="shape=umlActor;verticalLabelPosition=bottom;verticalAlign=top;html=1;" vertex="1" parent="1">
          <mxGeometry x="580" y="1390" width="30" height="60" as="geometry" />
        </mxCell>
        <mxCell id="hrEQfBOvGpcp4atjUUnU-47" value="프로필 사진 등록" style="ellipse;whiteSpace=wrap;html=1;" vertex="1" parent="1">
          <mxGeometry x="380" y="1490" width="100" height="60" as="geometry" />
        </mxCell>
        <mxCell id="hrEQfBOvGpcp4atjUUnU-48" value="&amp;lt;&amp;lt;extend&amp;gt;&amp;gt;" style="endArrow=open;endSize=12;dashed=1;html=1;rounded=0;exitX=0;exitY=0.5;exitDx=0;exitDy=0;entryX=0.706;entryY=0.979;entryDx=0;entryDy=0;entryPerimeter=0;" edge="1" parent="1" source="hrEQfBOvGpcp4atjUUnU-47" target="hrEQfBOvGpcp4atjUUnU-38">
          <mxGeometry y="20" width="160" relative="1" as="geometry">
            <mxPoint x="250" y="1510" as="sourcePoint" />
            <mxPoint x="230" y="1540" as="targetPoint" />
            <Array as="points" />
            <mxPoint as="offset" />
          </mxGeometry>
        </mxCell>
        <mxCell id="hrEQfBOvGpcp4atjUUnU-49" value="회원" style="shape=umlActor;verticalLabelPosition=bottom;verticalAlign=top;html=1;" vertex="1" parent="1">
          <mxGeometry x="20" y="1660" width="30" height="60" as="geometry" />
        </mxCell>
        <mxCell id="hrEQfBOvGpcp4atjUUnU-50" value="사용자" style="shape=umlActor;verticalLabelPosition=bottom;verticalAlign=top;html=1;" vertex="1" parent="1">
          <mxGeometry x="215" y="1560" width="30" height="60" as="geometry" />
        </mxCell>
        <mxCell id="hrEQfBOvGpcp4atjUUnU-51" value="" style="endArrow=block;endSize=16;endFill=0;html=1;rounded=0;exitX=1;exitY=0.3333333333333333;exitDx=0;exitDy=0;exitPerimeter=0;" edge="1" parent="1" source="hrEQfBOvGpcp4atjUUnU-49" target="hrEQfBOvGpcp4atjUUnU-50">
          <mxGeometry y="20" width="160" relative="1" as="geometry">
            <mxPoint x="50" y="1576" as="sourcePoint" />
            <mxPoint x="280" y="1620" as="targetPoint" />
            <mxPoint as="offset" />
          </mxGeometry>
        </mxCell>
        <mxCell id="hrEQfBOvGpcp4atjUUnU-52" value="공지사항 조회" style="ellipse;whiteSpace=wrap;html=1;" vertex="1" parent="1">
          <mxGeometry x="400" y="1570" width="100" height="60" as="geometry" />
        </mxCell>
        <mxCell id="hrEQfBOvGpcp4atjUUnU-53" value="" style="endArrow=open;endFill=1;endSize=12;html=1;rounded=0;entryX=-0.037;entryY=0.49;entryDx=0;entryDy=0;entryPerimeter=0;" edge="1" parent="1" target="hrEQfBOvGpcp4atjUUnU-52">
          <mxGeometry width="160" relative="1" as="geometry">
            <mxPoint x="240" y="1600" as="sourcePoint" />
            <mxPoint x="385" y="1599.71" as="targetPoint" />
          </mxGeometry>
        </mxCell>
        <mxCell id="hrEQfBOvGpcp4atjUUnU-54" value="" style="endArrow=block;endSize=16;endFill=0;html=1;rounded=0;exitX=0.938;exitY=0.864;exitDx=0;exitDy=0;exitPerimeter=0;entryX=0;entryY=0.3333333333333333;entryDx=0;entryDy=0;entryPerimeter=0;" edge="1" parent="1" source="hrEQfBOvGpcp4atjUUnU-36" target="hrEQfBOvGpcp4atjUUnU-50">
          <mxGeometry y="20" width="160" relative="1" as="geometry">
            <mxPoint x="60" y="1690" as="sourcePoint" />
            <mxPoint x="270" y="1610" as="targetPoint" />
            <mxPoint as="offset" />
          </mxGeometry>
        </mxCell>
        <mxCell id="hrEQfBOvGpcp4atjUUnU-55" value="관리자&lt;br&gt;" style="shape=umlActor;verticalLabelPosition=bottom;verticalAlign=top;html=1;" vertex="1" parent="1">
          <mxGeometry x="20" y="1534" width="30" height="60" as="geometry" />
        </mxCell>
        <mxCell id="hrEQfBOvGpcp4atjUUnU-56" value="" style="endArrow=block;endSize=16;endFill=0;html=1;rounded=0;" edge="1" parent="1" source="hrEQfBOvGpcp4atjUUnU-55" target="hrEQfBOvGpcp4atjUUnU-50">
          <mxGeometry y="20" width="160" relative="1" as="geometry">
            <mxPoint x="50" y="1450" as="sourcePoint" />
            <mxPoint x="215" y="1490" as="targetPoint" />
            <mxPoint as="offset" />
          </mxGeometry>
        </mxCell>
        <mxCell id="hrEQfBOvGpcp4atjUUnU-61" value="" style="endArrow=open;endFill=1;endSize=12;html=1;rounded=0;" edge="1" parent="1" source="hrEQfBOvGpcp4atjUUnU-49">
          <mxGeometry width="160" relative="1" as="geometry">
            <mxPoint x="60" y="1711" as="sourcePoint" />
            <mxPoint x="210" y="1730" as="targetPoint" />
          </mxGeometry>
        </mxCell>
        <mxCell id="hrEQfBOvGpcp4atjUUnU-62" value="마이페이지" style="ellipse;whiteSpace=wrap;html=1;" vertex="1" parent="1">
          <mxGeometry x="210" y="1700" width="100" height="60" as="geometry" />
        </mxCell>
        <mxCell id="hrEQfBOvGpcp4atjUUnU-63" value="내정보 조회" style="ellipse;whiteSpace=wrap;html=1;" vertex="1" parent="1">
          <mxGeometry x="390" y="1660" width="100" height="50" as="geometry" />
        </mxCell>
        <mxCell id="hrEQfBOvGpcp4atjUUnU-64" value="내가 좋아요 누른 게시글 조회" style="ellipse;whiteSpace=wrap;html=1;" vertex="1" parent="1">
          <mxGeometry x="390" y="1720" width="100" height="50" as="geometry" />
        </mxCell>
        <mxCell id="hrEQfBOvGpcp4atjUUnU-65" value="회원 탈퇴" style="ellipse;whiteSpace=wrap;html=1;" vertex="1" parent="1">
          <mxGeometry x="390" y="1780" width="100" height="50" as="geometry" />
        </mxCell>
        <mxCell id="hrEQfBOvGpcp4atjUUnU-66" value="&amp;lt;&amp;lt;extend&amp;gt;&amp;gt;" style="endArrow=open;endSize=12;dashed=1;html=1;rounded=0;entryX=0.947;entryY=0.203;entryDx=0;entryDy=0;entryPerimeter=0;" edge="1" parent="1" source="hrEQfBOvGpcp4atjUUnU-63" target="hrEQfBOvGpcp4atjUUnU-62">
          <mxGeometry y="20" width="160" relative="1" as="geometry">
            <mxPoint x="390" y="1530" as="sourcePoint" />
            <mxPoint x="251" y="1459" as="targetPoint" />
            <Array as="points" />
            <mxPoint as="offset" />
          </mxGeometry>
        </mxCell>
        <mxCell id="hrEQfBOvGpcp4atjUUnU-67" value="&amp;lt;&amp;lt;extend&amp;gt;&amp;gt;" style="endArrow=open;endSize=12;dashed=1;html=1;rounded=0;entryX=1;entryY=0.5;entryDx=0;entryDy=0;exitX=0.009;exitY=0.382;exitDx=0;exitDy=0;exitPerimeter=0;" edge="1" parent="1" source="hrEQfBOvGpcp4atjUUnU-64" target="hrEQfBOvGpcp4atjUUnU-62">
          <mxGeometry y="20" width="160" relative="1" as="geometry">
            <mxPoint x="400" y="1718" as="sourcePoint" />
            <mxPoint x="315" y="1722" as="targetPoint" />
            <Array as="points" />
            <mxPoint as="offset" />
          </mxGeometry>
        </mxCell>
        <mxCell id="hrEQfBOvGpcp4atjUUnU-68" value="&amp;lt;&amp;lt;extend&amp;gt;&amp;gt;" style="endArrow=open;endSize=12;dashed=1;html=1;rounded=0;entryX=0.906;entryY=0.836;entryDx=0;entryDy=0;entryPerimeter=0;exitX=-0.005;exitY=0.361;exitDx=0;exitDy=0;exitPerimeter=0;" edge="1" parent="1" source="hrEQfBOvGpcp4atjUUnU-65" target="hrEQfBOvGpcp4atjUUnU-62">
          <mxGeometry y="20" width="160" relative="1" as="geometry">
            <mxPoint x="410" y="1728" as="sourcePoint" />
            <mxPoint x="325" y="1732" as="targetPoint" />
            <Array as="points" />
            <mxPoint as="offset" />
          </mxGeometry>
        </mxCell>
        <mxCell id="hrEQfBOvGpcp4atjUUnU-69" value="" style="endArrow=open;endFill=1;endSize=12;html=1;rounded=0;entryX=0;entryY=0.5;entryDx=0;entryDy=0;" edge="1" parent="1" source="hrEQfBOvGpcp4atjUUnU-49" target="hrEQfBOvGpcp4atjUUnU-70">
          <mxGeometry width="160" relative="1" as="geometry">
            <mxPoint x="50" y="1790" as="sourcePoint" />
            <mxPoint x="210" y="1827" as="targetPoint" />
          </mxGeometry>
        </mxCell>
        <mxCell id="hrEQfBOvGpcp4atjUUnU-70" value="자유 게시판 목록 조회" style="ellipse;whiteSpace=wrap;html=1;" vertex="1" parent="1">
          <mxGeometry x="200" y="1850" width="140" height="60" as="geometry" />
        </mxCell>
        <mxCell id="hrEQfBOvGpcp4atjUUnU-73" value="" style="endArrow=open;endFill=1;endSize=12;html=1;rounded=0;entryX=0;entryY=0.5;entryDx=0;entryDy=0;exitX=1;exitY=1;exitDx=0;exitDy=0;exitPerimeter=0;" edge="1" parent="1" target="hrEQfBOvGpcp4atjUUnU-74" source="hrEQfBOvGpcp4atjUUnU-49">
          <mxGeometry width="160" relative="1" as="geometry">
            <mxPoint x="50" y="1780" as="sourcePoint" />
            <mxPoint x="210" y="1900" as="targetPoint" />
          </mxGeometry>
        </mxCell>
        <mxCell id="hrEQfBOvGpcp4atjUUnU-74" value="자유 게시판 상세 조회" style="ellipse;whiteSpace=wrap;html=1;" vertex="1" parent="1">
          <mxGeometry x="200" y="1923" width="140" height="60" as="geometry" />
        </mxCell>
        <mxCell id="hrEQfBOvGpcp4atjUUnU-75" value="" style="endArrow=open;endFill=1;endSize=12;html=1;rounded=0;entryX=0;entryY=0.5;entryDx=0;entryDy=0;" edge="1" parent="1" target="hrEQfBOvGpcp4atjUUnU-76" source="hrEQfBOvGpcp4atjUUnU-49">
          <mxGeometry width="160" relative="1" as="geometry">
            <mxPoint x="40" y="1870" as="sourcePoint" />
            <mxPoint x="200" y="1990" as="targetPoint" />
          </mxGeometry>
        </mxCell>
        <mxCell id="hrEQfBOvGpcp4atjUUnU-76" value="자유 게시판 글 작성" style="ellipse;whiteSpace=wrap;html=1;" vertex="1" parent="1">
          <mxGeometry x="200" y="2000" width="140" height="60" as="geometry" />
        </mxCell>
        <mxCell id="hrEQfBOvGpcp4atjUUnU-77" value="게시글 수정" style="ellipse;whiteSpace=wrap;html=1;" vertex="1" parent="1">
          <mxGeometry x="414" y="1890" width="100" height="50" as="geometry" />
        </mxCell>
        <mxCell id="hrEQfBOvGpcp4atjUUnU-78" value="게시글 삭제" style="ellipse;whiteSpace=wrap;html=1;" vertex="1" parent="1">
          <mxGeometry x="414" y="1960" width="100" height="50" as="geometry" />
        </mxCell>
        <mxCell id="hrEQfBOvGpcp4atjUUnU-79" value="&amp;lt;&amp;lt;extend&amp;gt;&amp;gt;" style="endArrow=open;endSize=12;dashed=1;html=1;rounded=0;entryX=0.994;entryY=0.291;entryDx=0;entryDy=0;entryPerimeter=0;exitX=0;exitY=0.5;exitDx=0;exitDy=0;" edge="1" parent="1" source="hrEQfBOvGpcp4atjUUnU-77" target="hrEQfBOvGpcp4atjUUnU-74">
          <mxGeometry y="20" width="160" relative="1" as="geometry">
            <mxPoint x="400" y="1808" as="sourcePoint" />
            <mxPoint x="311" y="1760" as="targetPoint" />
            <Array as="points" />
            <mxPoint as="offset" />
          </mxGeometry>
        </mxCell>
        <mxCell id="hrEQfBOvGpcp4atjUUnU-80" value="&amp;lt;&amp;lt;extend&amp;gt;&amp;gt;" style="endArrow=open;endSize=12;dashed=1;html=1;rounded=0;entryX=1.014;entryY=0.625;entryDx=0;entryDy=0;entryPerimeter=0;exitX=0;exitY=0.5;exitDx=0;exitDy=0;" edge="1" parent="1" source="hrEQfBOvGpcp4atjUUnU-78" target="hrEQfBOvGpcp4atjUUnU-74">
          <mxGeometry y="20" width="160" relative="1" as="geometry">
            <mxPoint x="424" y="1925" as="sourcePoint" />
            <mxPoint x="349" y="1950" as="targetPoint" />
            <Array as="points" />
            <mxPoint as="offset" />
          </mxGeometry>
        </mxCell>
        <mxCell id="hrEQfBOvGpcp4atjUUnU-86" value="" style="endArrow=open;endFill=1;endSize=12;html=1;rounded=0;entryX=0.5;entryY=0;entryDx=0;entryDy=0;" edge="1" parent="1" source="hrEQfBOvGpcp4atjUUnU-49" target="hrEQfBOvGpcp4atjUUnU-87">
          <mxGeometry width="160" relative="1" as="geometry">
            <mxPoint x="-130" y="1970" as="sourcePoint" />
            <mxPoint x="30" y="2007" as="targetPoint" />
          </mxGeometry>
        </mxCell>
        <mxCell id="hrEQfBOvGpcp4atjUUnU-87" value="로그인" style="ellipse;whiteSpace=wrap;html=1;" vertex="1" parent="1">
          <mxGeometry x="-10" y="1900" width="100" height="60" as="geometry" />
        </mxCell>
      </root>
    </mxGraphModel>
  </diagram>
</mxfile>
